<?xml version="1.0" standalone="no"?>
<!DOCTYPE svg PUBLIC "-//W3C//DTD SVG 20010904//EN"
 "http://www.w3.org/TR/2001/REC-SVG-20010904/DTD/svg10.dtd">
<svg version="1.0" xmlns="http://www.w3.org/2000/svg"
 width="370.000000pt" height="415.000000pt" viewBox="0 0 370.000000 415.000000"
 preserveAspectRatio="xMidYMid meet">

<g transform="translate(0.000000,415.000000) scale(0.100000,-0.100000)"
fill="#000000" stroke="none">
<path d="M1400 3512 l0 -402 431 -453 c238 -248 445 -465 460 -482 l29 -30 0
376 0 376 -421 469 c-231 258 -438 487 -460 509 l-39 40 0 -403z"/>
<path d="M170 3387 c-49 -16 -73 -36 -99 -77 -58 -96 6 -239 114 -253 94 -13
171 36 195 122 35 130 -87 250 -210 208z"/>
<path d="M1400 1685 l0 -340 431 -480 c237 -264 444 -493 460 -510 l29 -30 0
370 -1 370 -445 465 c-245 256 -452 472 -460 480 -12 12 -14 -29 -14 -325z"/>
<path d="M3434 1341 c-131 -33 -168 -214 -61 -302 12 -10 41 -23 65 -29 149
-38 266 134 178 262 -41 61 -110 87 -182 69z"/>
</g>
</svg>
